<svg xmlns="http://www.w3.org/2000/svg" viewBox="0 0 598.61 492.66"><defs><style>.cls-1{fill:#4fad32;stroke:#449039;stroke-miterlimit:10;}.cls-2{fill:#80bd5f;}.cls-3{fill:#d32324;}.cls-4{fill:#e12324;}.cls-5{fill:#c1191b;}.cls-6{fill:#b61b23;}</style></defs><g id="Layer_2" data-name="Layer 2"><g id="Layer_1-2" data-name="Layer 1"><path class="cls-1" d="M18.55,466.91c-8.47-3.54-13.29-.09-16.32-3.7-2.85-3.39-2.06-10.49,1.5-14,4.57-4.45,11.51-.78,14.26-4.83,2-3-1.24-5.82-.44-12.4.61-5,3.55-12.17,8.4-13.21,6-1.3,12.73,6.57,15.58,11.95,2.74,5.18,1.74,7.73,4.41,9.46,4.49,2.91,9.41-3,17-1.89,8.88,1.25,16.7,11.29,14.92,15.92s-12.33.5-18.71,7.42c-5.31,5.76-.86,11.76-6.31,20.19-4.74,7.33-14.12,12.09-18.2,9.65-3.7-2.21-.15-8.61-5.14-16A25.37,25.37,0,0,0,18.55,466.91Z"/><ellipse class="cls-2" cx="18.76" cy="453.76" rx="5.43" ry="3.96"/><ellipse class="cls-2" cx="61.78" cy="443.07" rx="5.43" ry="3.96"/><ellipse class="cls-2" cx="22.82" cy="428.69" rx="5.43" ry="3.96" transform="translate(-398.99 348.84) rotate(-76.23)"/><ellipse class="cls-2" cx="48.62" cy="449.27" rx="2.61" ry="3.57" transform="translate(-393.11 353.96) rotate(-71.65)"/><ellipse class="cls-2" cx="48.62" cy="476.9" rx="5.43" ry="3.96" transform="translate(-419.33 372.89) rotate(-71.65)"/><ellipse class="cls-2" cx="33.96" cy="467.88" rx="2.61" ry="3.57" transform="translate(-143.96 33.82) rotate(-18.14)"/><circle class="cls-3" cx="139.68" cy="46.4" r="25.68"/><circle class="cls-4" cx="139.68" cy="46.51" r="23.08"/><path class="cls-5" d="M154.55,28.84a41.6,41.6,0,0,0,6.92-4.26,41,41,0,0,0,7.77-7.78l2.65,2.45a28.21,28.21,0,0,0-12.65,15,18.81,18.81,0,0,0-4.69-5.46Z"/><ellipse class="cls-5" cx="171.89" cy="16.6" rx="2.62" ry="3.71" transform="translate(46.72 135.57) rotate(-49.06)"/><path class="cls-6" d="M169,17.11a4.9,4.9,0,0,0,1,1.32,5.16,5.16,0,0,0,1.55,1,2.79,2.79,0,0,1-1.82-.82A2.71,2.71,0,0,1,169,17.11Z"/><path class="cls-5" d="M135.62,23.8a40.94,40.94,0,0,0,.28-19l3.57-.44a28.5,28.5,0,0,0-.24,8.81,28.19,28.19,0,0,0,3.59,10.55,19.36,19.36,0,0,0-3.86-.31A18.91,18.91,0,0,0,135.62,23.8Z"/><ellipse class="cls-5" cx="137.44" cy="2.65" rx="3.71" ry="2.62" transform="translate(1.25 21.33) rotate(-8.92)"/><path class="cls-6" d="M136,5.19a5.14,5.14,0,0,0,1.65.08,5,5,0,0,0,1.78-.54,2.75,2.75,0,0,1-1.81.87A2.72,2.72,0,0,1,136,5.19Z"/><path class="cls-5" d="M118.21,37.81a41,41,0,0,0-16-10.19l1.5-3.27a28.26,28.26,0,0,0,18.24,7.29,19,19,0,0,0-2.28,3.12A18.35,18.35,0,0,0,118.21,37.81Z"/><ellipse class="cls-5" cx="101.15" cy="25.18" rx="3.71" ry="2.62" transform="translate(38.91 108.8) rotate(-67.31)"/><path class="cls-6" d="M102.55,27.75a4.94,4.94,0,0,0,.93-1.36,5.36,5.36,0,0,0,.48-1.8,2.84,2.84,0,0,1-.21,2A2.68,2.68,0,0,1,102.55,27.75Z"/><path class="cls-5" d="M122.15,61.58a41,41,0,0,0-16.42,9.56l-2.22-2.84a28.28,28.28,0,0,0,14.87-12.85,18.39,18.39,0,0,0,1.72,3.46A17.76,17.76,0,0,0,122.15,61.58Z"/><ellipse class="cls-5" cx="103.08" cy="70.92" rx="2.62" ry="3.71" transform="translate(-21.48 82.72) rotate(-39.94)"/><path class="cls-6" d="M106,70.87a5.15,5.15,0,0,0-.78-1.46,4.94,4.94,0,0,0-1.38-1.25,2.83,2.83,0,0,1,1.68,1.1A2.68,2.68,0,0,1,106,70.87Z"/><path class="cls-5" d="M145,69a41.22,41.22,0,0,0,1,19l-3.54.69a28.25,28.25,0,0,0-4.66-19.1,18,18,0,0,0,3.87,0A18.38,18.38,0,0,0,145,69Z"/><ellipse class="cls-5" cx="144.65" cy="90.18" rx="3.71" ry="2.62" transform="translate(-16.4 34.34) rotate(-12.82)"/><path class="cls-6" d="M145.94,87.55a4.92,4.92,0,0,0-1.66,0,5.26,5.26,0,0,0-1.73.65,2.78,2.78,0,0,1,1.74-1A2.69,2.69,0,0,1,145.94,87.55Z"/><path class="cls-5" d="M162.77,46.4a41.94,41.94,0,0,0,7.75,2.48,40.94,40.94,0,0,0,11,.83c0,1.2-.09,2.4-.14,3.6a28.2,28.2,0,0,0-19.65.21,18.91,18.91,0,0,0,.93-3.76A18.29,18.29,0,0,0,162.77,46.4Z"/><ellipse class="cls-5" cx="183.36" cy="51.58" rx="3.71" ry="2.62" transform="translate(130.83 234.67) rotate(-89.71)"/><path class="cls-6" d="M181.09,49.73a5.47,5.47,0,0,0-.35,1.62,5.1,5.1,0,0,0,.25,1.84,2.69,2.69,0,0,1,.1-3.46Z"/><ellipse class="cls-5" cx="135.19" cy="34.3" rx="3.71" ry="2.62" transform="translate(-3.04 52.86) rotate(-21.88)"/><ellipse class="cls-5" cx="133.04" cy="52.89" rx="2.62" ry="3.71" transform="translate(20.72 141.67) rotate(-60)"/><ellipse class="cls-5" cx="151.5" cy="43.34" rx="2.62" ry="3.71" transform="translate(-1.49 5.61) rotate(-2.11)"/><path class="cls-1" d="M266.9,165.83c2.37-8.88-1.69-13.18,1.49-16.68,3-3.27,10.11-3.44,14-.38,5,3.93,2.32,11.3,6.71,13.49,3.25,1.62,5.6-2,12.23-2.1,5-.07,12.53,1.89,14.22,6.56,2.08,5.79-4.82,13.48-9.76,17-4.77,3.42-7.43,2.77-8.79,5.64-2.28,4.84,4.2,8.93,4.16,16.63-.05,9-9,18.07-13.78,16.93s-2.15-12.16-9.86-17.55c-6.42-4.49-11.77.72-20.85-3.55-7.9-3.72-13.87-12.37-12-16.74,1.7-4,8.52-1.3,15.13-7.24A25.24,25.24,0,0,0,266.9,165.83Z"/><ellipse class="cls-2" cx="279.96" cy="164.27" rx="3.96" ry="5.43" transform="translate(-19.49 38.99) rotate(-7.7)"/><ellipse class="cls-2" cx="296.32" cy="205.47" rx="3.96" ry="5.43" transform="translate(-24.86 41.56) rotate(-7.7)"/><ellipse class="cls-2" cx="305.35" cy="164.94" rx="3.96" ry="5.43" transform="translate(109.06 451.14) rotate(-83.93)"/><ellipse class="cls-2" cx="288.41" cy="193.26" rx="3.57" ry="2.61" transform="translate(45.17 440.98) rotate(-79.35)"/><ellipse class="cls-2" cx="261.03" cy="196.96" rx="3.96" ry="5.43" transform="translate(19.21 417.09) rotate(-79.35)"/><ellipse class="cls-2" cx="268" cy="181.23" rx="3.57" ry="2.61" transform="translate(-52.19 134.92) rotate(-25.84)"/><path class="cls-1" d="M561.58,133.33c-2.19-5.76-6.09-6.51-5.73-9.66.33-2.94,4.15-5.84,7.48-5.71,4.28.17,5.7,5.25,8.95,4.72,2.4-.4,2.26-3.29,5.83-6,2.72-2,7.57-3.89,10.32-2,3.4,2.33,2.67,9.23,1.37,13.1s-3,4.42-2.57,6.52c.65,3.53,5.79,3.21,8.78,7.42,3.5,4.91,2.22,13.35-.86,14.62s-5.94-5.77-12.25-5.68c-5.26.07-6.13,5-12.75,6.25-5.75,1.07-12.4-1.3-13.1-4.41-.63-2.82,4.12-4.05,5.4-9.88A16.93,16.93,0,0,0,561.58,133.33Z"/><ellipse class="cls-2" cx="568.08" cy="127.36" rx="2.66" ry="3.64" transform="translate(68.23 425.83) rotate(-43.48)"/><ellipse class="cls-2" cx="593.15" cy="143.38" rx="2.66" ry="3.64" transform="translate(64.08 447.48) rotate(-43.48)"/><ellipse class="cls-2" cx="582.16" cy="117.77" rx="3.64" ry="2.66" transform="translate(18.17 304.02) rotate(-29.71)"/><ellipse class="cls-2" cx="584.06" cy="139.83" rx="1.75" ry="2.4" transform="translate(-4.11 261.23) rotate(-25.13)"/><ellipse class="cls-2" cx="570.6" cy="152.59" rx="3.64" ry="2.66" transform="translate(-10.8 256.72) rotate(-25.13)"/><ellipse class="cls-2" cx="568.23" cy="141.29" rx="2.4" ry="1.75" transform="translate(173.8 574.03) rotate(-61.62)"/></g></g></svg>